<svg xmlns="http://www.w3.org/2000/svg" viewBox="0 0 24 24" fill="currentColor"><path d="M20.1 9.22c-1.21 0-1.71-.86-1.11-1.9.36-.64.15-1.46-.49-1.83l-1.39-.8c-.55-.32-1.26-.13-1.58.42l-.09.15c-.6 1.05-1.59 1.05-2.2 0l-.09-.15a1.14 1.14 0 0 0-1.58-.42l-1.39.8c-.63.37-.84 1.19-.48 1.83.6 1.04.1 1.9-1.11 1.9-.73 0-1.33.6-1.33 1.33v1.59c0 .73.6 1.33 1.33 1.33 1.21 0 1.71.86 1.11 1.9-.36.64-.15 1.46.48 1.83l1.39.8c.55.32 1.26.13 1.58-.42l.09-.15c.6-1.05 1.59-1.05 2.2 0l.09.15c.32.55 1.03.74 1.58.42l1.39-.8c.63-.37.84-1.19.49-1.83-.6-1.04-.1-1.9 1.11-1.9.73 0 1.33-.6 1.33-1.33v-1.59c0-.73-.6-1.33-1.33-1.33zM12 15.25c-1.79 0-3.25-1.46-3.25-3.25S10.21 8.75 12 8.75s3.25 1.46 3.25 3.25-1.46 3.25-3.25 3.25z"/></svg>
